<?xml version="1.0" standalone="no"?>
<!DOCTYPE svg PUBLIC "-//W3C//DTD SVG 20010904//EN"
 "http://www.w3.org/TR/2001/REC-SVG-20010904/DTD/svg10.dtd">
<svg version="1.0" xmlns="http://www.w3.org/2000/svg"
 width="1024.000000pt" height="1024.000000pt" viewBox="0 0 1024.000000 1024.000000"
 preserveAspectRatio="xMidYMid meet">

<g transform="translate(0.000000,1024.000000) scale(0.100000,-0.100000)"
fill="currentColor" stroke="none">
<path d="M5013 7710 c-75 -37 -146 -112 -195 -206 -74 -142 -98 -270 -98 -532
0 -254 27 -435 94 -631 15 -41 26 -76 26 -79 0 -8 -189 10 -345 34 -353 53
-602 135 -717 235 l-43 37 23 25 c56 59 252 136 482 187 172 39 197 50 217 97
18 44 10 79 -25 116 -32 34 -74 35 -210 6 -376 -80 -596 -189 -668 -330 l-24
-49 2 -1482 c3 -1417 4 -1485 21 -1517 98 -178 396 -314 868 -395 79 -14 164
-27 189 -30 321 -35 846 -33 1110 3 385 54 684 145 877 269 90 58 135 105 167
172 l21 45 2 1445 c1 1593 5 1509 -62 1587 -105 123 -348 225 -684 287 -111
21 -124 20 -160 -10 -26 -21 -31 -33 -31 -67 0 -36 30 -107 44 -107 3 0 96
-23 207 -51 266 -67 400 -119 452 -176 17 -19 16 -21 -9 -47 -91 -90 -306
-170 -619 -230 -143 -28 -441 -63 -451 -54 -3 3 11 62 31 130 59 194 75 299
82 523 5 163 3 219 -11 300 -33 193 -92 325 -190 425 -71 72 -123 94 -226 98
-78 2 -90 0 -147 -28z m224 -205 c126 -109 182 -371 148 -695 -16 -148 -65
-375 -112 -510 l-19 -55 -97 -3 -97 -2 -15 37 c-33 79 -87 272 -105 380 -41
239 -33 529 19 677 38 110 102 187 169 205 40 11 67 2 109 -34z m1295 -1906
c-78 -72 -245 -151 -409 -193 -99 -26 -320 -64 -469 -80 -169 -19 -802 -23
-959 -6 -273 29 -562 87 -694 139 -97 39 -174 83 -222 128 l-49 46 0 328 c0
181 1 329 3 329 2 0 44 -20 93 -44 185 -91 439 -152 799 -192 268 -30 937 -23
1170 12 304 46 544 112 710 196 l70 36 3 -327 3 -326 -49 -46z m26 -947 c-90
-95 -389 -221 -588 -248 -25 -3 -48 -8 -53 -11 -4 -2 -39 -8 -77 -12 l-70 -7
0 97 c0 172 -36 251 -193 418 -51 55 -106 123 -121 150 l-27 51 23 0 c13 0
102 7 198 15 209 18 404 52 571 101 122 35 310 113 339 141 13 12 15 -25 18
-328 l2 -342 -22 -25z m-2738 649 c206 -108 492 -173 882 -202 l167 -12 -16
-31 c-20 -40 -70 -102 -153 -191 -129 -138 -170 -236 -170 -403 l0 -93 -32 5
c-18 3 -76 13 -128 21 -236 39 -491 136 -592 225 l-48 42 0 339 c0 186 3 339
7 339 4 0 41 -18 83 -39z m1418 -266 c19 -55 96 -176 136 -214 14 -14 26 -27
26 -30 0 -3 -115 -7 -255 -8 -140 0 -255 0 -255 2 0 1 20 25 45 51 52 56 107
149 126 211 l12 42 74 -2 74 -2 17 -50z m325 -480 c15 -31 17 -74 17 -322 0
-252 -2 -289 -17 -305 -14 -16 -33 -18 -141 -18 l-125 0 5 129 c5 148 -3 181
-52 206 -25 13 -38 14 -63 6 -65 -23 -67 -29 -67 -192 l0 -147 -44 -3 -44 -4
-4 146 c-3 160 -7 171 -65 195 -23 10 -39 11 -61 3 -55 -19 -62 -43 -62 -199
l0 -140 -45 0 c-32 0 -47 5 -54 18 -15 28 -19 601 -4 635 l13 27 398 0 398 0
17 -35z m969 -855 c-115 -107 -344 -194 -652 -250 -221 -39 -377 -50 -745 -50
-316 0 -368 2 -535 25 -415 55 -694 145 -827 268 l-43 40 0 317 c0 174 3 320
6 323 4 4 19 -2 33 -12 112 -79 413 -173 678 -211 l81 -12 4 -122 c2 -103 6
-128 26 -166 31 -58 58 -87 107 -113 39 -21 52 -22 463 -25 478 -3 492 -2 561
67 62 62 75 100 79 238 l4 122 37 6 c244 38 473 101 636 178 61 28 115 55 120
59 7 6 11 -100 13 -314 l3 -323 -49 -45z"/>
<path d="M5102 7359 c-80 -24 -97 -149 -26 -195 53 -35 140 -10 170 47 44 86
-45 178 -144 148z"/>
<path d="M6335 5955 c-113 -56 -216 -90 -325 -109 -73 -13 -89 -19 -112 -45
-40 -45 -38 -93 6 -137 27 -27 42 -34 73 -34 134 0 492 138 542 209 38 53 25
118 -29 146 -42 22 -55 19 -155 -30z"/>
<path d="M4688 5745 c-36 -20 -53 -74 -38 -120 23 -68 10 -67 495 -66 288 1
443 5 459 12 50 23 62 109 22 156 l-24 28 -444 2 c-373 2 -447 0 -470 -12z"/>
<path d="M6368 5004 c-99 -48 -249 -99 -333 -113 -106 -19 -118 -23 -143 -61
-26 -39 -24 -78 6 -119 42 -57 127 -51 352 25 220 74 290 123 290 203 0 32
-44 84 -79 94 -12 3 -50 -9 -93 -29z"/>
<path d="M6340 4071 c-107 -55 -216 -90 -326 -105 -80 -11 -100 -17 -122 -40
-21 -21 -27 -36 -27 -72 0 -39 5 -50 33 -75 43 -38 84 -38 242 2 125 31 246
77 325 124 79 45 99 123 46 176 -40 39 -78 37 -171 -10z"/>
<path d="M7179 6701 c-40 -40 -40 -89 0 -133 23 -26 36 -32 65 -31 48 1 82 25
95 66 33 98 -87 171 -160 98z"/>
<path d="M2867 6600 c-71 -27 -112 -63 -142 -125 -72 -146 -1 -321 149 -368
68 -22 99 -21 164 2 73 27 112 59 145 119 50 92 46 186 -10 270 -36 53 -72 80
-136 103 -63 23 -107 23 -170 -1z m143 -192 c11 -12 20 -25 20 -29 0 -4 2 -14
6 -22 3 -8 -7 -28 -21 -46 -34 -39 -75 -42 -110 -6 -49 48 -19 125 50 125 22
0 41 -8 55 -22z"/>
<path d="M7333 6013 c-61 -12 -90 -81 -58 -142 49 -95 198 -33 169 71 -8 29
-65 81 -83 77 -3 -1 -16 -4 -28 -6z"/>
<path d="M2915 5538 c-85 -49 -40 -178 61 -178 39 0 84 51 84 95 0 71 -83 119
-145 83z"/>
<path d="M7276 5455 c-141 -50 -209 -225 -140 -363 97 -195 372 -186 470 14
23 47 26 64 22 117 -12 144 -118 246 -258 246 -30 0 -72 -6 -94 -14z m156
-215 c17 -32 17 -36 0 -64 -23 -40 -65 -53 -98 -31 -55 36 -57 106 -2 129 44
19 80 7 100 -34z"/>
<path d="M2840 4967 c-103 -31 -172 -117 -178 -223 -6 -89 12 -145 66 -205 56
-62 99 -82 182 -82 159 -1 281 124 268 277 -14 168 -179 282 -338 233z m130
-199 c27 -30 26 -73 -5 -103 -31 -32 -65 -32 -99 0 -32 29 -34 72 -6 103 28
30 82 30 110 0z"/>
<path d="M7288 4302 c-37 -22 -54 -73 -38 -113 35 -84 147 -79 180 7 16 40 12
54 -24 90 -39 39 -75 44 -118 16z"/>
<path d="M2999 3711 c-38 -39 -39 -87 -3 -130 22 -26 33 -31 70 -31 98 0 138
124 55 173 -45 26 -88 22 -122 -12z"/>
<path d="M7195 3728 c-33 -17 -45 -40 -45 -81 0 -88 109 -132 164 -66 70 83
-24 200 -119 147z"/>
<path d="M4468 2753 c-54 -34 -61 -108 -14 -152 22 -21 23 -21 698 -21 489 0
683 3 702 11 57 27 65 114 13 153 -28 21 -36 21 -700 23 -617 3 -674 1 -699
-14z"/>
</g>
</svg>
